<svg viewBox="0 0 330 200" xmlns="http://www.w3.org/2000/svg"><g><g><g><g><g><line x1="60" y1="178" x2="55" y2="178" style="visibility: inherit;" fill="rgb(0, 0, 0)" stroke="rgb(204, 204, 204)" stroke-width="1px"></line><line x1="60" y1="163.16666666666669" x2="55" y2="163.16666666666669" style="visibility: inherit;" fill="rgb(0, 0, 0)" stroke="rgb(204, 204, 204)" stroke-width="1px"></line><line x1="60" y1="148.33333333333331" x2="55" y2="148.33333333333331" style="visibility: inherit;" fill="rgb(0, 0, 0)" stroke="rgb(204, 204, 204)" stroke-width="1px"></line><line x1="60" y1="133.5" x2="55" y2="133.5" style="visibility: inherit;" fill="rgb(0, 0, 0)" stroke="rgb(204, 204, 204)" stroke-width="1px"></line><line x1="60" y1="118.66666666666667" x2="55" y2="118.66666666666667" style="visibility: inherit;" fill="rgb(0, 0, 0)" stroke="rgb(204, 204, 204)" stroke-width="1px"></line><line x1="60" y1="103.83333333333336" x2="55" y2="103.83333333333336" style="visibility: inherit;" fill="rgb(0, 0, 0)" stroke="rgb(204, 204, 204)" stroke-width="1px"></line><line x1="60" y1="89.00000000000001" x2="55" y2="89.00000000000001" style="visibility: inherit;" fill="rgb(0, 0, 0)" stroke="rgb(204, 204, 204)" stroke-width="1px"></line><line x1="60" y1="74.16666666666669" x2="55" y2="74.16666666666669" style="visibility: inherit;" fill="rgb(0, 0, 0)" stroke="rgb(204, 204, 204)" stroke-width="1px"></line><line x1="60" y1="59.33333333333336" x2="55" y2="59.33333333333336" style="visibility: inherit;" fill="rgb(0, 0, 0)" stroke="rgb(204, 204, 204)" stroke-width="1px"></line><line x1="60" y1="44.50000000000003" x2="55" y2="44.50000000000003" style="visibility: inherit;" fill="rgb(0, 0, 0)" stroke="rgb(204, 204, 204)" stroke-width="1px"></line><line x1="60" y1="29.666666666666686" x2="55" y2="29.666666666666686" style="visibility: inherit;" fill="rgb(0, 0, 0)" stroke="rgb(204, 204, 204)" stroke-width="1px"></line><line x1="60" y1="14.833333333333343" x2="55" y2="14.833333333333343" style="visibility: inherit;" fill="rgb(0, 0, 0)" stroke="rgb(204, 204, 204)" stroke-width="1px"></line><line x1="60" y1="0" x2="55" y2="0" style="visibility: inherit;" fill="rgb(0, 0, 0)" stroke="rgb(204, 204, 204)" stroke-width="1px"></line></g><g transform="translate(50, 0)"><text x="0" y="178" dx="0em" dy="0.3em" style="text-anchor: end; visibility: hidden; font-family: &quot;Helvetica Neue&quot;, sans-serif; font-size: 12px; font-weight: 200;" fill="rgb(50, 49, 63)" stroke="none" stroke-width="1px">0.450</text><text x="0" y="163.16666666666669" dx="0em" dy="0.3em" style="text-anchor: end; visibility: inherit; font-family: &quot;Helvetica Neue&quot;, sans-serif; font-size: 12px; font-weight: 200;" fill="rgb(50, 49, 63)" stroke="none" stroke-width="1px">0.500</text><text x="0" y="148.33333333333331" dx="0em" dy="0.3em" style="text-anchor: end; visibility: hidden; font-family: &quot;Helvetica Neue&quot;, sans-serif; font-size: 12px; font-weight: 200;" fill="rgb(50, 49, 63)" stroke="none" stroke-width="1px">0.550</text><text x="0" y="133.5" dx="0em" dy="0.3em" style="text-anchor: end; visibility: inherit; font-family: &quot;Helvetica Neue&quot;, sans-serif; font-size: 12px; font-weight: 200;" fill="rgb(50, 49, 63)" stroke="none" stroke-width="1px">0.600</text><text x="0" y="118.66666666666667" dx="0em" dy="0.3em" style="text-anchor: end; visibility: hidden; font-family: &quot;Helvetica Neue&quot;, sans-serif; font-size: 12px; font-weight: 200;" fill="rgb(50, 49, 63)" stroke="none" stroke-width="1px">0.650</text><text x="0" y="103.83333333333336" dx="0em" dy="0.3em" style="text-anchor: end; visibility: inherit; font-family: &quot;Helvetica Neue&quot;, sans-serif; font-size: 12px; font-weight: 200;" fill="rgb(50, 49, 63)" stroke="none" stroke-width="1px">0.700</text><text x="0" y="89.00000000000001" dx="0em" dy="0.3em" style="text-anchor: end; visibility: hidden; font-family: &quot;Helvetica Neue&quot;, sans-serif; font-size: 12px; font-weight: 200;" fill="rgb(50, 49, 63)" stroke="none" stroke-width="1px">0.750</text><text x="0" y="74.16666666666669" dx="0em" dy="0.3em" style="text-anchor: end; visibility: inherit; font-family: &quot;Helvetica Neue&quot;, sans-serif; font-size: 12px; font-weight: 200;" fill="rgb(50, 49, 63)" stroke="none" stroke-width="1px">0.800</text><text x="0" y="59.33333333333336" dx="0em" dy="0.3em" style="text-anchor: end; visibility: hidden; font-family: &quot;Helvetica Neue&quot;, sans-serif; font-size: 12px; font-weight: 200;" fill="rgb(50, 49, 63)" stroke="none" stroke-width="1px">0.850</text><text x="0" y="44.50000000000003" dx="0em" dy="0.3em" style="text-anchor: end; visibility: inherit; font-family: &quot;Helvetica Neue&quot;, sans-serif; font-size: 12px; font-weight: 200;" fill="rgb(50, 49, 63)" stroke="none" stroke-width="1px">0.900</text><text x="0" y="29.666666666666686" dx="0em" dy="0.3em" style="text-anchor: end; visibility: hidden; font-family: &quot;Helvetica Neue&quot;, sans-serif; font-size: 12px; font-weight: 200;" fill="rgb(50, 49, 63)" stroke="none" stroke-width="1px">0.950</text><text x="0" y="14.833333333333343" dx="0em" dy="0.3em" style="text-anchor: end; visibility: inherit; font-family: &quot;Helvetica Neue&quot;, sans-serif; font-size: 12px; font-weight: 200;" fill="rgb(50, 49, 63)" stroke="none" stroke-width="1px">1.00</text><text x="0" y="0" dx="0em" dy="0.3em" style="text-anchor: end; visibility: hidden; font-family: &quot;Helvetica Neue&quot;, sans-serif; font-size: 12px; font-weight: 200;" fill="rgb(50, 49, 63)" stroke="none" stroke-width="1px">1.05</text></g><line x1="60" y1="0" x2="60" y2="178" fill="rgb(0, 0, 0)" stroke="rgb(204, 204, 204)" stroke-width="1px"></line></g></g><g transform="translate(60, 0)" clip-path="url(#clip_0)"><clipPath id="clip_0"><rect width="270" height="178"></rect></clipPath><g><g><g><line x1="0" y1="0" x2="0" y2="178" fill="rgb(0, 0, 0)" stroke="rgb(60, 60, 60)" stroke-width="1px" opacity="0.25"></line><line x1="30" y1="0" x2="30" y2="178" fill="rgb(0, 0, 0)" stroke="rgb(60, 60, 60)" stroke-width="1px" opacity="0.25"></line><line x1="60" y1="0" x2="60" y2="178" fill="rgb(0, 0, 0)" stroke="rgb(60, 60, 60)" stroke-width="1px" opacity="0.25"></line><line x1="90" y1="0" x2="90" y2="178" fill="rgb(0, 0, 0)" stroke="rgb(60, 60, 60)" stroke-width="1px" opacity="0.25"></line><line x1="120" y1="0" x2="120" y2="178" fill="rgb(0, 0, 0)" stroke="rgb(60, 60, 60)" stroke-width="1px" opacity="0.25"></line><line x1="150" y1="0" x2="150" y2="178" fill="rgb(0, 0, 0)" stroke="rgb(60, 60, 60)" stroke-width="1px" opacity="0.25"></line><line x1="180" y1="0" x2="180" y2="178" fill="rgb(0, 0, 0)" stroke="rgb(60, 60, 60)" stroke-width="1px" opacity="0.25"></line><line x1="210" y1="0" x2="210" y2="178" fill="rgb(0, 0, 0)" stroke="rgb(60, 60, 60)" stroke-width="1px" opacity="0.25"></line><line x1="240" y1="0" x2="240" y2="178" fill="rgb(0, 0, 0)" stroke="rgb(60, 60, 60)" stroke-width="1px" opacity="0.25"></line><line x1="270" y1="0" x2="270" y2="178" fill="rgb(0, 0, 0)" stroke="rgb(60, 60, 60)" stroke-width="1px" opacity="0.25"></line></g><g><line x1="0" y1="178" x2="270" y2="178" fill="rgb(0, 0, 0)" stroke="rgb(60, 60, 60)" stroke-width="1px" opacity="0.25"></line><line x1="0" y1="163.16666666666669" x2="270" y2="163.16666666666669" fill="rgb(0, 0, 0)" stroke="rgb(60, 60, 60)" stroke-width="1px" opacity="0.25"></line><line x1="0" y1="148.33333333333331" x2="270" y2="148.33333333333331" fill="rgb(0, 0, 0)" stroke="rgb(60, 60, 60)" stroke-width="1px" opacity="0.25"></line><line x1="0" y1="133.5" x2="270" y2="133.5" fill="rgb(0, 0, 0)" stroke="rgb(60, 60, 60)" stroke-width="1px" opacity="0.25"></line><line x1="0" y1="118.66666666666667" x2="270" y2="118.66666666666667" fill="rgb(0, 0, 0)" stroke="rgb(60, 60, 60)" stroke-width="1px" opacity="0.25"></line><line x1="0" y1="103.83333333333336" x2="270" y2="103.83333333333336" fill="rgb(0, 0, 0)" stroke="rgb(60, 60, 60)" stroke-width="1px" opacity="0.25"></line><line x1="0" y1="89.00000000000001" x2="270" y2="89.00000000000001" fill="rgb(0, 0, 0)" stroke="rgb(60, 60, 60)" stroke-width="1px" opacity="0.25"></line><line x1="0" y1="74.16666666666669" x2="270" y2="74.16666666666669" fill="rgb(0, 0, 0)" stroke="rgb(60, 60, 60)" stroke-width="1px" opacity="0.25"></line><line x1="0" y1="59.33333333333336" x2="270" y2="59.33333333333336" fill="rgb(0, 0, 0)" stroke="rgb(60, 60, 60)" stroke-width="1px" opacity="0.25"></line><line x1="0" y1="44.50000000000003" x2="270" y2="44.50000000000003" fill="rgb(0, 0, 0)" stroke="rgb(60, 60, 60)" stroke-width="1px" opacity="0.25"></line><line x1="0" y1="29.666666666666686" x2="270" y2="29.666666666666686" fill="rgb(0, 0, 0)" stroke="rgb(60, 60, 60)" stroke-width="1px" opacity="0.25"></line><line x1="0" y1="14.833333333333343" x2="270" y2="14.833333333333343" fill="rgb(0, 0, 0)" stroke="rgb(60, 60, 60)" stroke-width="1px" opacity="0.25"></line><line x1="0" y1="0" x2="270" y2="0" fill="rgb(0, 0, 0)" stroke="rgb(60, 60, 60)" stroke-width="1px" opacity="0.25"></line></g></g></g><g><g><line x1="0" y1="311.5" x2="270" y2="311.5" fill="rgb(0, 0, 0)" stroke="rgb(153, 153, 153)" stroke-width="1.5px"></line></g></g><g><g><line x1="30" y1="0" x2="30" y2="178" fill="rgb(0, 0, 0)" stroke="rgb(153, 153, 153)" stroke-width="1.5px"></line></g></g><g><g><g><g><g><path stroke="rgb(0, 119, 187)" stroke-width="2px" d="M34.23,141.0951771736145L38.504999999999995,141.0951771736145L42.81,141.09517717361456L47.129999999999995,141.0951771736145L51.465,77.86323514370143L55.8,44.193264464197284L60.15,33.18066378788632L64.5,26.726715278040587L68.85,24.91325512596339L73.2,27.282315887351274L77.56500000000001,28.00539414602477L81.93,25.70848460062672L86.295,28.48391763898084L90.66,26.588766128364114L95.03999999999999,38.14733029880972L99.42,30.54615573771636L103.8,27.192659101835403L108.18,27.7721746324965L112.55999999999999,25.320308649702042L116.94,35.57154616492835L121.30499999999999,28.255103831918035L125.67,36.01905887404811L130.05,28.726667387962436L134.43,48.10162212656223L138.81,36.10408195565668L143.19,29.25553239342935L147.57,29.169594512783874L151.95000000000002,26.062225754122522L156.32999999999998,23.465224991893024L160.71,23.6449052791844L165.09,26.09462807853157L169.47,25.262694469715996L173.85,24.54244163737937L178.245,25.74964716224207L182.625,27.310003329547897L187.02,24.743882589888102L191.41500000000002,25.233056302938593L195.81,25.81998633995923L200.205,24.26342634659906L204.6,23.558764143521017L208.995,24.375403764657904L213.39,24.395606284433768L217.785,23.709342504999654L222.18,28.30120059564169L226.575,25.426939423381555L230.97,42.157533976027594L235.36499999999998,37.06409132017416L239.76,28.736543549563663L244.14000000000001,29.6618196080112L248.535,27.641924827156828L252.93,26.85618575740449L257.325,25.360630479612183" style="fill: none;" fill="none"></path></g></g></g></g><g opacity="0.2"><g><g><g><path stroke="rgb(0, 119, 187)" stroke-width="2px" d="M34.23,141.0951771736145L38.504999999999995,141.0951771736145L42.81,141.0951771736145L47.129999999999995,141.0951771736145L51.465,38.527724385261564L55.8,22.94784112771353L60.15,26.19366192817688L64.5,22.62327496210736L68.85,23.7593007485072L73.2,28.790297349294036L77.56500000000001,28.465713500976562L81.93,24.246176520983397L86.295,30.25090698401135L90.66,25.38220230738324L95.03999999999999,45.50620639324191L99.42,25.706786155700684L103.8,25.057618459065765L108.18,28.141129652659117L112.55999999999999,23.7593007485072L116.94,42.09811135133111L121.30499999999999,23.59700882434845L125.67,40.96206788221997L130.05,24.083884596824646L134.43,60.43690427144371L138.81,28.465713500976562L143.19,24.895326534907042L147.57,29.11488119761151L151.95000000000002,24.083884596824646L156.32999999999998,21.81181534131369L160.71,23.7593007485072L165.09,27.654271562894195L169.47,24.73303461074829L173.85,24.083884596824646L178.245,26.51822809378308L182.625,28.30342157681784L187.02,23.110133051872253L191.41500000000002,25.54449423154196L195.81,26.19366192817688L200.205,23.272424976031004L204.6,23.110133051872253L208.995,24.895326534907042L213.39,24.40846844514212L217.785,23.272424976031004L222.18,31.224658528963744L226.575,23.59700882434845L230.97,52.80925456682843L235.36499999999998,33.8212939500809L239.76,23.434716900189727L244.14000000000001,30.25090698401135L248.535,26.35593616962433L252.93,26.35593616962433L257.325,24.40846844514212" style="fill: none;" fill="none"></path></g></g></g></g></g></g><g transform="translate(60, 178)" clip-path="url(#clip_1)"><clipPath id="clip_1"><rect width="270" height="22"></rect></clipPath><g><g><line x1="0" y1="0" x2="0" y2="5" style="visibility: inherit;" fill="rgb(0, 0, 0)" stroke="rgb(204, 204, 204)" stroke-width="1px"></line><line x1="30" y1="0" x2="30" y2="5" style="visibility: inherit;" fill="rgb(0, 0, 0)" stroke="rgb(204, 204, 204)" stroke-width="1px"></line><line x1="60" y1="0" x2="60" y2="5" style="visibility: inherit;" fill="rgb(0, 0, 0)" stroke="rgb(204, 204, 204)" stroke-width="1px"></line><line x1="90" y1="0" x2="90" y2="5" style="visibility: inherit;" fill="rgb(0, 0, 0)" stroke="rgb(204, 204, 204)" stroke-width="1px"></line><line x1="120" y1="0" x2="120" y2="5" style="visibility: inherit;" fill="rgb(0, 0, 0)" stroke="rgb(204, 204, 204)" stroke-width="1px"></line><line x1="150" y1="0" x2="150" y2="5" style="visibility: inherit;" fill="rgb(0, 0, 0)" stroke="rgb(204, 204, 204)" stroke-width="1px"></line><line x1="180" y1="0" x2="180" y2="5" style="visibility: inherit;" fill="rgb(0, 0, 0)" stroke="rgb(204, 204, 204)" stroke-width="1px"></line><line x1="210" y1="0" x2="210" y2="5" style="visibility: inherit;" fill="rgb(0, 0, 0)" stroke="rgb(204, 204, 204)" stroke-width="1px"></line><line x1="240" y1="0" x2="240" y2="5" style="visibility: inherit;" fill="rgb(0, 0, 0)" stroke="rgb(204, 204, 204)" stroke-width="1px"></line><line x1="270" y1="0" x2="270" y2="5" style="visibility: inherit;" fill="rgb(0, 0, 0)" stroke="rgb(204, 204, 204)" stroke-width="1px"></line></g><g transform="translate(0, 8)"><text x="0" y="0" dx="0em" dy="0.95em" style="text-anchor: middle; visibility: hidden; font-family: &quot;Helvetica Neue&quot;, sans-serif; font-size: 12px; font-weight: 200;" fill="rgb(50, 49, 63)" stroke="none" stroke-width="1px">-2.000k</text><text x="30" y="0" dx="0em" dy="0.95em" style="text-anchor: middle; visibility: inherit; font-family: &quot;Helvetica Neue&quot;, sans-serif; font-size: 12px; font-weight: 200;" fill="rgb(50, 49, 63)" stroke="none" stroke-width="1px">0.000</text><text x="60" y="0" dx="0em" dy="0.95em" style="text-anchor: middle; visibility: hidden; font-family: &quot;Helvetica Neue&quot;, sans-serif; font-size: 12px; font-weight: 200;" fill="rgb(50, 49, 63)" stroke="none" stroke-width="1px">2.000k</text><text x="90" y="0" dx="0em" dy="0.95em" style="text-anchor: middle; visibility: inherit; font-family: &quot;Helvetica Neue&quot;, sans-serif; font-size: 12px; font-weight: 200;" fill="rgb(50, 49, 63)" stroke="none" stroke-width="1px">4.000k</text><text x="120" y="0" dx="0em" dy="0.95em" style="text-anchor: middle; visibility: hidden; font-family: &quot;Helvetica Neue&quot;, sans-serif; font-size: 12px; font-weight: 200;" fill="rgb(50, 49, 63)" stroke="none" stroke-width="1px">6.000k</text><text x="150" y="0" dx="0em" dy="0.95em" style="text-anchor: middle; visibility: inherit; font-family: &quot;Helvetica Neue&quot;, sans-serif; font-size: 12px; font-weight: 200;" fill="rgb(50, 49, 63)" stroke="none" stroke-width="1px">8.000k</text><text x="180" y="0" dx="0em" dy="0.95em" style="text-anchor: middle; visibility: hidden; font-family: &quot;Helvetica Neue&quot;, sans-serif; font-size: 12px; font-weight: 200;" fill="rgb(50, 49, 63)" stroke="none" stroke-width="1px">10.00k</text><text x="210" y="0" dx="0em" dy="0.95em" style="text-anchor: middle; visibility: inherit; font-family: &quot;Helvetica Neue&quot;, sans-serif; font-size: 12px; font-weight: 200;" fill="rgb(50, 49, 63)" stroke="none" stroke-width="1px">12.00k</text><text x="240" y="0" dx="0em" dy="0.95em" style="text-anchor: middle; visibility: hidden; font-family: &quot;Helvetica Neue&quot;, sans-serif; font-size: 12px; font-weight: 200;" fill="rgb(50, 49, 63)" stroke="none" stroke-width="1px">14.00k</text><text x="270" y="0" dx="0em" dy="0.95em" style="text-anchor: middle; visibility: hidden; font-family: &quot;Helvetica Neue&quot;, sans-serif; font-size: 12px; font-weight: 200;" fill="rgb(50, 49, 63)" stroke="none" stroke-width="1px">16.00k</text></g><line x1="0" y1="0" x2="270" y2="0" fill="rgb(0, 0, 0)" stroke="rgb(204, 204, 204)" stroke-width="1px"></line></g></g></g></g></svg>